<svg xmlns="http://www.w3.org/2000/svg" width="169.737" height="32.787" viewBox="0 0 169.737 32.787">
    <defs>
        <style>
            .cls-1{fill:#4e9431}.cls-2{fill:#5eab42}.cls-3{fill:#2c2c2c}
        </style>
    </defs>
    <g id="Group_14" data-name="Group 14" transform="translate(-138 -27)">
        <g id="amulex_simple_ru" transform="translate(138 27)">
            <g id="Group_4" data-name="Group 4">
                <path id="Path_39" d="M3.385 32.733L22.533 0l23.46 32.733L0 13.909l36.535 10.247-14-13.816z" class="cls-1" data-name="Path 39"/>
                <path id="Path_40" d="M7.3 32.733L26.448 6.259V0z" class="cls-2" data-name="Path 40" transform="translate(-3.915)"/>
                <path id="Path_41" d="M48.6 13.5v4.079l14 13.821z" class="cls-2" data-name="Path 41" transform="translate(-26.067 -7.241)"/>
                <path id="Path_42" d="M0 30l39.5 13.492 6.491 5.332" class="cls-2" data-name="Path 42" transform="translate(0 -16.091)"/>
                <path id="Path_43" d="M7.3 39.974l19.148-22.395V13.5z" class="cls-1" data-name="Path 43" transform="translate(-3.915 -7.241)"/>
            </g>
        </g>
        <path id="Path_28" d="M2.73-3.695v-17.224h15.419v17.224h-5.1v-13.231H7.835v13.231zm27.33.417a8.477 8.477 0 0 1-3.16-.608 8.018 8.018 0 0 1-2.691-1.754 8.418 8.418 0 0 1-1.858-2.83 9.992 9.992 0 0 1-.695-3.837 9.992 9.992 0 0 1 .695-3.837 8.418 8.418 0 0 1 1.858-2.83 8.018 8.018 0 0 1 2.691-1.754 8.477 8.477 0 0 1 3.16-.608 8.344 8.344 0 0 1 3.143.608 8.062 8.062 0 0 1 2.674 1.754 8.418 8.418 0 0 1 1.858 2.83 9.992 9.992 0 0 1 .695 3.837 9.992 9.992 0 0 1-.695 3.837 8.418 8.418 0 0 1-1.858 2.83A8.062 8.062 0 0 1 33.2-3.886a8.344 8.344 0 0 1-3.14.608zm0-4.133a2.59 2.59 0 0 0 2.361-1.32 6.882 6.882 0 0 0 .8-3.577 6.882 6.882 0 0 0-.8-3.577A2.59 2.59 0 0 0 30.06-17.2a2.581 2.581 0 0 0-2.379 1.32 7.007 7.007 0 0 0-.781 3.577 7.007 7.007 0 0 0 .781 3.577A2.581 2.581 0 0 0 30.06-7.41zM41.937 2.7v-23.619H46.1l.347 1.7h.139a9.607 9.607 0 0 1 2.275-1.511 6 6 0 0 1 2.622-.608 6.2 6.2 0 0 1 2.813.625 5.994 5.994 0 0 1 2.118 1.771 8.4 8.4 0 0 1 1.337 2.761 12.872 12.872 0 0 1 .469 3.594 11.8 11.8 0 0 1-.608 3.942 9.1 9.1 0 0 1-1.632 2.917A7.094 7.094 0 0 1 53.657-3.9a6.151 6.151 0 0 1-2.691.625 5.193 5.193 0 0 1-2.153-.469 6.876 6.876 0 0 1-1.945-1.337l.174 2.743V2.7zm7.848-10.14a2.789 2.789 0 0 0 2.257-1.2 6.324 6.324 0 0 0 .938-3.872q0-4.653-2.987-4.653a4.126 4.126 0 0 0-2.952 1.563v7.05a4.167 4.167 0 0 0 1.389.868 4.087 4.087 0 0 0 1.355.239zm14.863 3.745v-13.231h-5.07v-3.994h15.28v3.994h-5.1v13.231zm17.016.417a5.486 5.486 0 0 1-2.136-.4 4.575 4.575 0 0 1-1.615-1.111 5.143 5.143 0 0 1-1.024-1.65 5.606 5.606 0 0 1-.365-2.049 4.823 4.823 0 0 1 2.292-4.237q2.292-1.528 7.4-2.049a2.9 2.9 0 0 0-.677-1.823 2.619 2.619 0 0 0-2.032-.677 6.152 6.152 0 0 0-2.205.417 16.027 16.027 0 0 0-2.344 1.146l-1.841-3.369a18.057 18.057 0 0 1 3.49-1.632 11.857 11.857 0 0 1 3.872-.625 6.6 6.6 0 0 1 5.088 1.893q1.754 1.893 1.754 5.886v9.862h-4.169l-.352-1.77h-.139a11.021 11.021 0 0 1-2.327 1.58 5.9 5.9 0 0 1-2.669.608zM83.4-7.237a2.809 2.809 0 0 0 1.493-.382A7.3 7.3 0 0 0 86.214-8.7v-3.021a9.246 9.246 0 0 0-3.751 1.111 2.1 2.1 0 0 0-1.042 1.736 1.434 1.434 0 0 0 .538 1.233 2.364 2.364 0 0 0 1.441.404zm12.225 3.959a5.147 5.147 0 0 1-1.077-.1 7.664 7.664 0 0 1-.972-.278l.833-4.584a2.742 2.742 0 0 0 .417.1 2.75 2.75 0 0 0 .451.035 1.545 1.545 0 0 0 1.2-.573 3.768 3.768 0 0 0 .677-2q.347-2.57.608-5.1t.573-5.14h12.71v17.223h-5.1v-13.231h-3.577q-.243 1.91-.469 3.837t-.5 3.837a8.033 8.033 0 0 1-1.841 4.445 5.1 5.1 0 0 1-3.933 1.529z" class="cls-3" data-name="Path 28" transform="translate(196.694 57.092)"/>
    </g>
</svg>
