<svg xmlns="http://www.w3.org/2000/svg" width="24" height="24" viewBox="0 0 24 24">
    <defs>
        <style>
            .cls-1{fill:#fda4a4}.cls-2{fill:red}.cls-3{fill:none}
        </style>
    </defs>
    <g id="Group_86" data-name="Group 86" transform="translate(-140 -2125)">
        <g id="_78ABa2" data-name="78ABa2" transform="translate(280.269 2162.041)">
            <g id="Group_84" data-name="Group 84" transform="translate(-136.269 -34.852)">
                <path id="Path_22" d="M-122.05 79.929c0 1.579-.012 3.158.008 4.737.006.444-.143.595-.587.589-1.549-.02-3.1 0-4.649-.01-.828 0-1.005-.191-1.005-1.02v-8.722c0-.736.179-.916.911-.917h4.738c.575 0 .583.008.584.6q.002 2.374 0 4.743z" class="cls-1" data-name="Path 22" transform="translate(128.992 -64.884)"/>
                <path id="Path_23" d="M-34.1 79.884V75.19c0-.6.009-.6.584-.6h4.782c.675 0 .868.2.868.872v8.9c0 .641-.2.874-.828.88-1.653.017-3.306 0-4.959.011-.4 0-.452-.216-.451-.539.004-1.614.004-3.221.004-4.83z" class="cls-1" data-name="Path 23" transform="translate(43.16 -64.883)"/>
                <path id="Path_24" d="M-30.868 29.609c-.916 0-1.832-.011-2.748.006-.351.006-.514-.095-.507-.473.016-.945.013-1.891 0-2.836 0-.322.117-.45.441-.449 1.847.008 3.693 0 5.54.009.7 0 .952.288.958.988.005.62.007 1.241 0 1.861s-.269.889-.892.893c-.931.005-1.861.001-2.792.001z" class="cls-1" data-name="Path 24" transform="translate(43.178 -20.475)"/>
                <path id="Path_25" d="M-132.64 29.661h-2.746c-.6 0-.865-.266-.875-.864a60.187 60.187 0 0 1 0-1.993c.011-.568.271-.87.837-.876 1.9-.02 3.809-.009 5.713-.011a.331.331 0 0 1 .379.377v3.011c0 .3-.172.361-.431.36-.958-.009-1.918-.005-2.877-.004z" class="cls-1" data-name="Path 25" transform="translate(136.269 -20.527)"/>
                <path id="Path_26" d="M-106.7-29.878a4.009 4.009 0 0 1-3.391-2.879.721.721 0 0 1 .222-.641 5.692 5.692 0 0 1 1.914-1.332 1.443 1.443 0 0 1 1.633.354 5.976 5.976 0 0 1 1.659 3.355 4.17 4.17 0 0 1 .081.7c0 .161.063.4-.206.409-.232.01-.227-.212-.241-.357a8 8 0 0 0-.316-1.6A4 4 0 0 0-106.619-34c-.249-.192-.517-.381-.848-.228-.353.163-.307.508-.307.813a3.5 3.5 0 0 0 .629 1.864c.274.438.577.857.866 1.285.064.095.207.174.159.3-.062.157-.232.072-.354.09a1.628 1.628 0 0 1-.226-.002z" class="cls-2" data-name="Path 26" transform="translate(112.418 34.852)"/>
                <path id="Path_27" d="M-42.525-29.8h-.177c-.113-.01-.263.047-.327-.069s.072-.208.138-.3a11.667 11.667 0 0 0 1.186-1.865 3.011 3.011 0 0 0 .32-1.542c-.047-.572-.413-.777-.919-.5A2.57 2.57 0 0 0-43.319-33a7.347 7.347 0 0 0-.788 2.565c-.03.218.051.615-.29.577s-.194-.418-.164-.634a6.185 6.185 0 0 1 1.646-3.734 1.542 1.542 0 0 1 2.089-.248 7.555 7.555 0 0 1 1.433 1.034.913.913 0 0 1 .27 1 4.075 4.075 0 0 1-3.402 2.64z" class="cls-2" data-name="Path 27" transform="translate(52.74 34.775)"/>
            </g>
        </g>
        <path id="Rectangle_118" d="M0 0h24v24H0z" class="cls-3" data-name="Rectangle 118" transform="translate(140 2125)"/>
    </g>
</svg>
