<svg xmlns="http://www.w3.org/2000/svg" id="prefix__insert_chart_outlined-24px" width="16" height="16" viewBox="0 0 16 16">
    <path id="prefix__Path_94" fill="none" d="M0 0h16v16H0z" data-name="Path 94"/>
    <path id="prefix__Path_95" fill="#5bad3b" d="M7.444 15.444a.892.892 0 0 1-.889-.889v-4.444a.889.889 0 0 1 1.778 0v4.444a.892.892 0 0 1-.889.889zm3.556 0a.892.892 0 0 1-.889-.889V7.444a.889.889 0 1 1 1.778 0v7.111a.892.892 0 0 1-.889.889zm3.556 0a.892.892 0 0 1-.889-.889v-1.777a.889.889 0 1 1 1.778 0v1.778a.892.892 0 0 1-.889.888zm1.778 1.778H5.667a.892.892 0 0 1-.889-.889V5.667a.892.892 0 0 1 .889-.889h10.666a.892.892 0 0 1 .889.889v10.666a.892.892 0 0 1-.889.889zM17.222 3H4.778A1.783 1.783 0 0 0 3 4.778v12.444A1.783 1.783 0 0 0 4.778 19h12.444A1.783 1.783 0 0 0 19 17.222V4.778A1.783 1.783 0 0 0 17.222 3z" data-name="Path 95" transform="translate(-3 -3)"/>
</svg>
