<svg xmlns="http://www.w3.org/2000/svg" width="16" height="15.5" viewBox="0 0 16 15.5">
    <defs>
        <style>
            .cls-1{fill:#5bad3b}.cls-2,.cls-4{fill:none}.cls-2{stroke:#5bad3b;stroke-width:2px}.cls-3{stroke:none}
        </style>
    </defs>
    <g id="Group_130" data-name="Group 130" transform="translate(-56 -130)">
        <path id="Subtraction_7" d="M16 3H0V2a2 2 0 0 1 2-2h1.017A1.771 1.771 0 0 0 3 .25a1.75 1.75 0 0 0 3.5 0A1.772 1.772 0 0 0 6.482 0h3.035A1.771 1.771 0 0 0 9.5.25a1.75 1.75 0 0 0 3.5 0 1.773 1.773 0 0 0-.018-.25H14a2 2 0 0 1 2 2v1z" class="cls-1" data-name="Subtraction 7" transform="translate(56 131)"/>
        <g id="Rectangle_174" class="cls-2" data-name="Rectangle 174" transform="translate(56 134.5)">
            <path d="M0 0h16v9a2 2 0 0 1-2 2H2a2 2 0 0 1-2-2V0z" class="cls-3"/>
            <rect width="14" height="9" x="1" y="1" class="cls-4" rx="1"/>
        </g>
        <rect id="Rectangle_177" width="2.5" height="2.5" class="cls-1" data-name="Rectangle 177" rx="1.25" transform="translate(59.5 130)"/>
        <rect id="Rectangle_178" width="2.5" height="2.5" class="cls-1" data-name="Rectangle 178" rx="1.25" transform="translate(66 130)"/>
    </g>
</svg>
