<svg xmlns="http://www.w3.org/2000/svg" id="baseline-exit_to_app-24px" width="24" height="24" viewBox="0 0 24 24">
    <defs>
        <style>
            .cls-1{fill:none}.cls-2{fill:#5eab42}
        </style>
    </defs>
    <path id="Path_18" d="M0 0h24v24H0z" class="cls-1" data-name="Path 18"/>
    <path id="Path_19" d="M10.09 15.59L11.5 17l5-5-5-5-1.41 1.41L12.67 11H3v2h9.67zM19 3H5a2 2 0 0 0-2 2v4h2V5h14v14H5v-4H3v4a2 2 0 0 0 2 2h14a2.006 2.006 0 0 0 2-2V5a2.006 2.006 0 0 0-2-2z" class="cls-2" data-name="Path 19"/>
</svg>
