<svg xmlns="http://www.w3.org/2000/svg" width="24" height="24" viewBox="0 0 24 24">
    <defs>
        <style>
            .cls-1{fill:none}.cls-2{fill:#5bad3b}.cls-3{fill:red}.cls-4,.cls-5,.cls-6{stroke:none}.cls-5{fill:#fafff9}.cls-6{fill:#fff}
        </style>
    </defs>
    <g id="Group_162" data-name="Group 162" transform="translate(-8 -8)">
        <path id="Rectangle_245" d="M0 0h24v24H0z" class="cls-1" data-name="Rectangle 245" transform="translate(8 8)"/>
        <g id="Group_152" data-name="Group 152" transform="translate(-4 -1)">
            <g id="Polygon_4" class="cls-2" data-name="Polygon 4">
                <path d="M22.594 19.323H.877L11.735.981l10.859 18.342z" class="cls-4" transform="translate(12 13.176)"/>
                <path d="M11.735 1.963l-9.98 16.86h19.962l-9.982-16.86m0-1.963l11.736 19.823H0L11.735 0z" class="cls-5" transform="translate(12 13.176)"/>
            </g>
        </g>
        <g id="Polygon_5" class="cls-3" data-name="Polygon 5">
            <path d="M11.322 11.954L7.75 9.893l-.25-.145-.25.145-3.572 2.06 1.027-3.662.092-.328-.272-.206-3.14-2.371 4.12-.24.306-.018.122-.282L7.5 1.251l1.567 3.595.122.282.307.018 4.119.24-3.14 2.371-.272.206.092.328 1.027 3.663z" class="cls-4" transform="translate(12.2 8)"/>
            <path d="M7.5 2.503L6.392 5.046l-.246.563-.613.036-2.762.16 2.055 1.553.545.412-.185.656-.696 2.482L7 9.459l.5-.288.5.288 2.51 1.449-.696-2.482-.185-.656.545-.412 2.055-1.552-2.762-.161-.613-.036-.246-.563L7.5 2.503M7.5 0l2.025 4.646 5.475.32-4.223 3.19L12.135 13 7.5 10.326 2.865 13l1.358-4.844L0 4.966l5.475-.32L7.5 0z" class="cls-6" transform="translate(12.2 8)"/>
        </g>
    </g>
</svg>
