<svg xmlns="http://www.w3.org/2000/svg" width="41.11" height="67.57" viewBox="0 0 41.11 67.57">
    <defs>
        <style>
            .cls-1{fill:#5bad3b}
        </style>
    </defs>
    <g id="Group_128" data-name="Group 128" transform="translate(308.209 67.315)">
        <path id="Path_50" d="M-277.527 211.256c.1-.115.138-.177.193-.228.107-.1.038-.393.325-.286.263.1.525.278.386.573-.2.422.054.422.4.414a1.818 1.818 0 0 1 1.5.732 3.956 3.956 0 0 1 .871 2.208c.034.326.17.422.521.42q2.8-.016 5.6 0c.373 0 .478-.126.5-.437a3.741 3.741 0 0 1 1-2.348 1.731 1.731 0 0 1 1.377-.578c.231 0 .365-.029.351-.29a1.769 1.769 0 0 1 .284-.881c.046-.089.076-.22.211-.222s.149.134.192.224a2.261 2.261 0 0 0 .107.245c.038.059.1.139.162.145.12.012.157-.094.176-.179.079-.345.126-.7.232-1.036.08-.255.094-.665.418-.672.239 0 .212.413.269.644.119.484.192.977.284 1.466.11.022.134-.062.189-.111.124-.109.061-.413.363-.326.257.074.443.3.368.516-.183.523.155.47.538.486a1.849 1.849 0 0 1 1.473.858 4.144 4.144 0 0 1 .763 2.074c.029.327.164.427.518.421a56.105 56.105 0 0 1 2.427 0c2.2.06 3.625 1.378 3.625 3.328 0 9.745-.011 19.49.014 29.235a3.372 3.372 0 0 1-1.617 3 2.825 2.825 0 0 1-1.2.391c-.381.05-.522.218-.513.563a2.668 2.668 0 0 1-.39 1.825 2.322 2.322 0 0 1-1.912.941q-3 .035-6 0a2.229 2.229 0 0 1-2.3-2.025c-.007-.073-.005-.147-.007-.22-.016-1.008-.016-1.008-1.129-1.008-2.577 0-5.154.012-7.731-.01-.515 0-.66.142-.632.579a2.591 2.591 0 0 1-.266 1.589 2.238 2.238 0 0 1-2.043 1.1q-2.973.024-5.947 0a2.2 2.2 0 0 1-2.3-2.06 2.653 2.653 0 0 0-.068-1.043c-.155-.324-.671-.232-1.017-.355a3.255 3.255 0 0 1-2.265-3.09c-.007-2.719 0-5.438 0-8.158 0-7.041.023-14.081-.014-21.122a3.5 3.5 0 0 1 3.9-3.468c.692.033 1.389-.02 2.081.013.46.022.613-.146.643-.522a3.945 3.945 0 0 1 .894-2.165 1.7 1.7 0 0 1 1.425-.675c.311.006.452-.061.419-.37a1.079 1.079 0 0 1 .136-.51c.083-.186.126-.48.343-.5.251-.021.178.293.282.444.05.072.073.181.2.164s.148-.112.168-.2c.071-.3.127-.606.206-.906a4.944 4.944 0 0 1 .216-.63c.037-.09.09-.213.233-.195s.141.155.161.247c.134.636.259 1.268.407 1.981zm23.277 21.862v-14.463c0-1.15-.391-1.494-1.687-1.494h-29.684a1.247 1.247 0 0 0-1.273 1.078c-.02.2-.011.411-.011.617v28.749c0 1.065.42 1.439 1.6 1.439h29.388c1.273 0 1.661-.342 1.661-1.466q.006-7.228.006-14.46zm-6.266 18.005c-.825 0-1.65.012-2.474-.005-.378-.008-.562.1-.522.453a2.419 2.419 0 0 1 0 .4c-.012.241.11.343.383.342q2.573-.007 5.147 0c.275 0 .389-.116.385-.35a1.622 1.622 0 0 1 .01-.352c.075-.369-.086-.5-.5-.488-.813.015-1.621 0-2.429 0zm-20.039 1.185h2.08c.848 0 .848 0 .824-.742v-.132c.008-.226-.124-.311-.367-.31h-5.15c-.278 0-.39.111-.378.348a1.264 1.264 0 0 1 0 .264c-.069.431.1.608.622.583.782-.039 1.576-.011 2.368-.011zm17.652-37.224h1.678c.142 0 .3.026.391-.123.217-.369-.286-1.15-.753-1.155-.757-.008-1.513 0-2.27 0-.777 0-.975.169-1.051.855-.033.294.067.44.426.43.525-.019 1.052-.008 1.582-.007zm-15.331 0h1.629c.142 0 .3.032.4-.114.207-.326-.317-1.158-.743-1.163-.774-.009-1.547 0-2.321 0-.725 0-.909.155-1.005.8-.049.328.046.5.463.484.521-.022 1.049-.007 1.576-.007z" class="cls-1" data-name="Path 50" transform="translate(-17.079 -254.137)"/>
        <path id="Path_51" d="M-287.674-62.852h-18.534c-1.049 0-1.71-.292-1.946-.842a.674.674 0 0 1 .039-.61c.88-1.665 1.732-3.336 2.652-4.992.623-1.12 2.174-1.767 4.07-1.771h4.609c1.473 0 2.279-.5 2.281-1.412v-4a1.474 1.474 0 0 1 .905-1.476 3.373 3.373 0 0 1 1.546-.357c2.94 0 5.881-.009 8.821 0 1.377 0 2.409.674 2.418 1.557.014 1.415.049 2.831-.013 4.245-.035.8.914 1.475 2.313 1.446 1.551-.032 3.105-.009 4.658-.006 1.855 0 3.45.7 4.047 1.8a265.818 265.818 0 0 1 2.578 4.882c.45.871-.344 1.535-1.815 1.535q-9.312.003-18.629.001zm.01-1.459h17.4c.636 0 .634 0 .44-.367l-2.108-3.968c-.351-.662-.991-.96-2.091-.96h-27.259a2.09 2.09 0 0 0-2.043.92c-.712 1.332-1.415 2.665-2.122 4-.2.379-.2.38.44.38zm.036-6.757h4.511c.337 0 .457-.035.29-.258a1.655 1.655 0 0 1-.311-1.057c.009-1.353 0-2.707 0-4.06 0-.4-.026-.415-.678-.415h-7.633c-.657 0-.673.009-.673.413v3.967a1.875 1.875 0 0 1-.306 1.091c-.2.294-.022.322.386.32 1.473-.007 2.942-.001 4.414-.001z" class="cls-1" data-name="Path 51" transform="translate(0 11)"/>
        <path id="Path_52" d="M-204.008 464.64h7.681a3.563 3.563 0 0 1 3.66 3.568q.052 3.22 0 6.442a3.542 3.542 0 0 1-3.567 3.508q-7.829.023-15.658 0a3.5 3.5 0 0 1-3.513-3.542q-.017-3.171 0-6.343a3.527 3.527 0 0 1 3.674-3.632q3.858-.004 7.723-.001zm-.066 2.334h-7.58a1.261 1.261 0 0 0-1.424 1.434q-.007 2.973 0 5.945c0 1.017.461 1.476 1.495 1.477q7.506.006 15.012 0a1.416 1.416 0 0 0 1.591-1.578c-.031-1.882 0-3.765-.009-5.648 0-1.192-.45-1.627-1.652-1.627z" class="cls-1" data-name="Path 52" transform="translate(-83.592 -490.024)"/>
        <path id="Path_53" d="M-195.255 356.181a1.508 1.508 0 0 1-1.4-.909 1.429 1.429 0 0 1 .413-1.656.936.936 0 0 0 .376-.708.545.545 0 0 1 .607-.57c.386 0 .513.269.533.586a.94.94 0 0 0 .4.693 1.427 1.427 0 0 1 .37 1.667 1.423 1.423 0 0 1-1.299.897z" class="cls-1" data-name="Path 53" transform="translate(-100.399 -384.53)"/>
        <path id="Path_54" d="M-142.426 354.582a1.286 1.286 0 0 1 .531-1.135.787.787 0 0 0 .341-.66.558.558 0 0 1 .543-.6.542.542 0 0 1 .6.584.911.911 0 0 0 .422.728 1.411 1.411 0 0 1 .294 1.756 1.415 1.415 0 0 1-1.62.746 1.433 1.433 0 0 1-1.111-1.419z" class="cls-1" data-name="Path 54" transform="translate(-149.344 -384.395)"/>
        <path id="Path_55" d="M-32.859 355.914a1.482 1.482 0 0 1-1.4-1.048 1.476 1.476 0 0 1 .6-1.658.513.513 0 0 0 .222-.508.584.584 0 0 1 .581-.659.548.548 0 0 1 .56.623.8.8 0 0 0 .383.688 1.412 1.412 0 0 1 .422 1.609 1.449 1.449 0 0 1-1.368.953z" class="cls-1" data-name="Path 55" transform="translate(-246.728 -384.261)"/>
        <path id="Path_56" d="M-88.316 354.435a1.383 1.383 0 0 1 .572-1.2.642.642 0 0 0 .317-.62.532.532 0 0 1 .557-.615.547.547 0 0 1 .564.573 1.141 1.141 0 0 0 .4.746 1.368 1.368 0 0 1 .036 2.134 1.473 1.473 0 0 1-2.125-.1 1.316 1.316 0 0 1-.321-.918z" class="cls-1" data-name="Path 56" transform="translate(-198.092 -384.22)"/>
    </g>
</svg>
