<svg xmlns="http://www.w3.org/2000/svg" width="45.994" height="61.92" viewBox="0 0 45.994 61.92">
    <defs>
        <style>
            .cls-1{fill:#5bad3b}
        </style>
    </defs>
    <path id="Path_62" d="M-111.006-58.164v.253c-.033.1-.069.2-.1.3l-2.481 8.217q-1.146 3.774-2.311 7.543a.454.454 0 0 0 .14.555c.208.177.391.382.584.577a3.729 3.729 0 0 1 .466 4.846 4.319 4.319 0 0 1-1.875 1.542.606.606 0 0 0-.407.649q.011 7.926-.005 15.852c-.007 3.136.013 6.273-.046 9.409a1.4 1.4 0 0 1-.132.576 5.306 5.306 0 0 1-2.805 2.69h-30.01c-.147-.081-.293-.165-.442-.242a4.988 4.988 0 0 1-1.909-1.706 3.262 3.262 0 0 1-.585-1.884c0-4.726.027-9.451-.02-14.177q-.05-5.02-.008-10.041c.006-.686-.121-1.157-.822-1.347a.128.128 0 0 1-.028-.015 3.845 3.845 0 0 1-1.337-5.7 4.2 4.2 0 0 1 1.516-1.3l.595-.292a.37.37 0 0 0 .218-.463 733.86 733.86 0 0 1-1.086-5.508q-1.221-6.365-2.429-12.733l-.675-3.53v-.379c1.464-.293 2.928-.589 4.393-.877q4.241-.832 8.484-1.656c.637-.124.649-.119.8.52.864 3.709 1.529 7.458 2.263 11.194.841 4.282 1.658 8.57 2.479 12.856.052.271.16.412.457.386.23-.02.463 0 .694 0 .428 0 .438-.011.438-.45V-53.68a2.426 2.426 0 0 0-.046-.47c-.306-1.558-.6-3.118-.912-4.675a.665.665 0 0 1 .151-.583c.431-.545.85-1.1 1.287-1.64 1.4-1.728 2.793-3.455 4.27-5.115.265-.3.3-.3.558.007.768.894 1.536 1.789 2.291 2.695a142.38 142.38 0 0 1 3.153 3.908.991.991 0 0 1 .233.9c-.186.831-.3 1.677-.495 2.507a17.558 17.558 0 0 0-.443 4.19c.04 3.074.012 6.148.012 9.222v.347c0 .168.023.325.242.335.192.009.389.027.455-.226.034-.132.082-.261.122-.392q2.649-8.646 5.287-17.295a2.755 2.755 0 0 1 1.068-1.5c1.462-1.069 2.971-2.07 4.462-3.1.39-.269.787-.527 1.176-.8.163-.114.266-.093.331.1.027.08.061.157.092.235zm-23.951 24.158H-150.4c-.5 0-.5 0-.5.507l.029 17.689c0 1.211 0 2.422.014 3.633.015 1.168-.017 2.336.071 3.5a1.427 1.427 0 0 0 1.377 1.4c.62.032 1.241.062 1.862.062q10.851.009 21.7.008c1.737 0 3.474.012 5.21-.061a1.364 1.364 0 0 0 1.487-1.313 16.589 16.589 0 0 0 .1-1.985q.014-11.467.014-22.933c0-.513 0-.513-.53-.513zm-11.029-8.071c1.642-.009 3.285.042 4.926-.054.412-.024.441-.049.366-.445q-.3-1.566-.591-3.131c-1.176-6.168-2.354-12.335-3.6-18.49-.092-.457-.157-.507-.616-.431-2.958.489-5.891 1.105-8.832 1.685a.325.325 0 0 0-.3.422 9.542 9.542 0 0 0 .232 1.175.355.355 0 0 0 .487.291c.7-.139 1.409-.245 2.11-.385.283-.057.417.035.464.308q.1.606.22 1.21c.053.273-.055.41-.327.462-.7.133-1.4.294-2.1.417-.292.051-.372.2-.327.459q.088.513.188 1.024c.092.469.167.513.647.417 1.3-.26 2.6-.512 3.9-.778.289-.059.443.037.5.317.089.443.17.888.272 1.329.05.218-.023.308-.234.346a47.36 47.36 0 0 0-1.3.255c-.927.19-1.856.372-2.78.578-.443.1-.476.177-.4.616.051.29.1.581.152.87.078.425.125.449.541.384.727-.114 1.443-.29 2.178-.359a.289.289 0 0 1 .364.25c.071.329.15.656.208.988.107.609.078.643-.535.777s-1.262.23-1.878.416c-.246.075-.346.2-.287.465.049.215.068.436.1.654.124.772.16.8.934.66 1.263-.227 2.526-.454 3.786-.691.238-.045.355.02.4.261.075.424.15.85.256 1.268.08.319-.039.452-.342.476a1.366 1.366 0 0 0-.155.029c-1.3.256-2.6.517-3.9.765-.293.056-.39.2-.333.485.066.33.117.663.188.992.1.443.157.477.607.4.611-.108 1.221-.222 1.833-.324.475-.079.57-.012.7.444a5.8 5.8 0 0 1 .165.9c.053.435-.016.545-.45.629-.692.134-1.384.264-2.079.38-.2.033-.271.1-.237.311.166 1.01.022.95 1.061.972 1.269.021 2.544.001 3.818.001zm11.024 6h13.895c1.209 0 2.42-.015 3.627-.116a1.384 1.384 0 0 0 1.265-1.1 3.478 3.478 0 0 0-.007-1.473 1.273 1.273 0 0 0-1.219-1.047 26.886 26.886 0 0 0-1.419-.064c-1.926-.022-3.852-.045-5.778-.052q-10.768-.04-21.537-.021c-2.041 0-4.083-.04-6.124.064a1.473 1.473 0 0 0-1.525 1.309 3.22 3.22 0 0 0-.011 1.038 1.409 1.409 0 0 0 1.437 1.356c1 .1 2 .1 3 .1 4.796.015 9.596.005 14.396.005zm.033-9.451c0 1.02.009 2.041-.005 3.061 0 .3.084.411.393.409 1.7-.011 3.408 0 5.112-.006.38 0 .4-.026.4-.422 0-2.03 0-4.06.005-6.091 0-.3-.088-.407-.4-.405-1.7.012-3.408 0-5.112.006-.385 0-.4.017-.4.418q.006 1.514.007 3.029zm3.981-11c0 .389.009.779 0 1.168-.007.24.077.345.328.34q.757-.017 1.515 0a.309.309 0 0 0 .36-.3q.3-1.58.611-3.157a.442.442 0 0 0-.1-.406q-1.737-2.065-3.471-4.132c-.248-.294-.284-.29-.527 0q-1.725 2.054-3.446 4.112a.518.518 0 0 0-.118.467c.2 1.031.412 2.061.6 3.095.047.256.171.325.408.32a26.89 26.89 0 0 1 1.42 0c.278.009.369-.1.365-.37-.012-.757 0-1.515-.005-2.272 0-.235.072-.347.326-.34q.71.02 1.42 0c.255-.007.329.1.322.338-.016.377-.007.756-.007 1.135zm7.773 14.456h.474c.591-.013.588-.015.759-.576q1.369-4.5 2.74-8.995c.654-2.154 1.294-4.311 1.953-6.464.084-.274.019-.418-.243-.5-.321-.1-.638-.215-.961-.309-.532-.155-.534-.15-.7.385l-3.787 12.436q-.552 1.811-1.106 3.621c-.109.359-.079.4.3.4.193.002.382 0 .572 0zm4.248 0v.011h.379c.6 0 .6 0 .772-.571l2.487-8.185c.612-2.024 1.21-4.053 1.829-6.075.087-.284.026-.439-.243-.535-.307-.11-.608-.238-.919-.334-.474-.147-.527-.117-.673.361l-3.6 11.741q-.489 1.6-.963 3.2c-.1.335-.071.373.265.382.225.008.446.003.667.003zm-13.06-8.967c.852 0 1.7-.009 2.555 0 .29 0 .428-.076.412-.39-.02-.4-.012-.8 0-1.2.006-.239-.081-.34-.331-.339q-2.633.009-5.267 0c-.235 0-.317.1-.312.322.009.389 0 .778 0 1.167 0 .42.011.432.419.432q1.263.008 2.525.006zm16.993-11.221a.527.527 0 0 0-.1.04 19.276 19.276 0 0 0-1.916 1.335c-.18.144-.059.2.077.249q1.41.513 2.863.887c.171.044.257.014.189-.173a15.033 15.033 0 0 0-.913-2.182c-.042-.076-.081-.154-.199-.158z" class="cls-1" data-name="Path 62" transform="translate(157 67.077)"/>
</svg>
