<svg xmlns="http://www.w3.org/2000/svg" width="24" height="24" viewBox="0 0 24 24">
    <defs>
        <style>
            .cls-1{fill:#5bad3b}
        </style>
    </defs>
    <path id="Subtraction_11" d="M5373-2550a11.918 11.918 0 0 1-8.484-3.515A11.918 11.918 0 0 1 5361-2562a11.92 11.92 0 0 1 3.515-8.486A11.918 11.918 0 0 1 5373-2574a11.921 11.921 0 0 1 8.485 3.515A11.921 11.921 0 0 1 5385-2562a11.92 11.92 0 0 1-3.516 8.485A11.921 11.921 0 0 1 5373-2550zm0-8a2 2 0 0 0-2 2 2 2 0 0 0 2 2 2 2 0 0 0 2-2 2 2 0 0 0-2-2zm0-6a2 2 0 0 0-2 2 2 2 0 0 0 2 2 2 2 0 0 0 2-2 2 2 0 0 0-2-2zm0-6a2 2 0 0 0-2 2 2 2 0 0 0 2 2 2 2 0 0 0 2-2 2 2 0 0 0-2-2z" class="cls-1" data-name="Subtraction 11" transform="rotate(90 1405.5 -3955.5)"/>
</svg>
