<svg xmlns="http://www.w3.org/2000/svg" id="print-24px-2" width="20" height="20" viewBox="0 0 20 20">
    <path id="Path_109" fill="none" d="M0 0h20v20H0z" data-name="Path 109"/>
    <path id="Path_110" fill="#5bad3b" d="M16.167 7.167H4.5a2.5 2.5 0 0 0-2.5 2.5V13a1.672 1.672 0 0 0 1.667 1.667h1.666v1.667A1.672 1.672 0 0 0 7 18h6.667a1.672 1.672 0 0 0 1.667-1.667v-1.666H17A1.672 1.672 0 0 0 18.667 13V9.667a2.5 2.5 0 0 0-2.5-2.5zm-3.333 9.167h-5A.836.836 0 0 1 7 15.5v-3.333h6.667V15.5a.836.836 0 0 1-.834.833zm3.333-5.834A.833.833 0 1 1 17 9.667a.836.836 0 0 1-.833.833zM14.5 3H6.167a.836.836 0 0 0-.833.833V5.5a.836.836 0 0 0 .833.833H14.5a.836.836 0 0 0 .833-.833V3.833A.836.836 0 0 0 14.5 3z" data-name="Path 110" transform="translate(-.333 -.5)"/>
</svg>
