<svg xmlns="http://www.w3.org/2000/svg" width="24" height="24" viewBox="0 0 24 24">
    <defs>
        <style>
            .cls-1{fill:#5bad3b}.cls-2{fill:red}.cls-3{fill:none}
        </style>
    </defs>
    <g id="Group_90" data-name="Group 90" transform="translate(-175 -584)">
        <g id="SILnKY.tif" transform="translate(424.283 684.074)">
            <g id="Group_89" data-name="Group 89" transform="translate(-246.284 -98.074)">
                <path id="Path_30" d="M-238.8 38.828a8.855 8.855 0 0 1-4.3-1.873 8.454 8.454 0 0 1-3.178-6.16c-.037-.559.043-.614.6-.565a8.659 8.659 0 0 1 7.984 7.631 8.6 8.6 0 0 1 3.95-6.288 8.7 8.7 0 0 1 4.128-1.354c.377-.031.536.081.519.487a8.646 8.646 0 0 1-5.312 7.518 11.7 11.7 0 0 1-2.172.6z" class="cls-1" data-name="Path 30" transform="translate(246.283 -18.828)"/>
                <path id="Path_31" d="M-218.544-89.265a2.239 2.239 0 0 1 .927-1.872c.244-.183.319-.265.022-.489a2.357 2.357 0 0 1-.646-3.093 2.366 2.366 0 0 1 2.941-1.058c.379.145.429.019.491-.3a2.375 2.375 0 0 1 2.365-2 2.365 2.365 0 0 1 2.392 2.015c.068.364.168.4.506.274a2.376 2.376 0 0 1 2.934 1.081 2.369 2.369 0 0 1-.631 3.064c-.238.183-.326.263-.025.489a2.356 2.356 0 0 1 .647 3.092 2.361 2.361 0 0 1-2.9 1.076c-.418-.16-.472-.037-.543.328a2.378 2.378 0 0 1-2.4 1.954 2.367 2.367 0 0 1-2.337-1.973c-.075-.417-.185-.434-.559-.3a2.381 2.381 0 0 1-3.184-2.288zm6.1.183a2.3 2.3 0 0 0 2.344-2.268 2.294 2.294 0 0 0-2.313-2.345 2.3 2.3 0 0 0-2.345 2.313 2.294 2.294 0 0 0 2.312 2.299z" class="cls-2" data-name="Path 31" transform="translate(221.021 98.074)"/>
            </g>
        </g>
        <path id="Rectangle_128" d="M0 0h24v24H0z" class="cls-3" data-name="Rectangle 128" transform="translate(175 584)"/>
    </g>
</svg>
