<svg xmlns="http://www.w3.org/2000/svg" id="Expanded" width="48" height="48" viewBox="0 0 48 48">
    <defs>
        <style>
            .cls-1{fill:#5bad3b}
        </style>
    </defs>
    <g id="Group_127" data-name="Group 127">
        <g id="Group_116" data-name="Group 116">
            <path id="Path_41" d="M45 48H1a1 1 0 0 1-1-1v-6a1 1 0 0 1 1-1h19V22H7a1 1 0 0 1-1-1V1a1 1 0 0 1 1-1h37a4 4 0 0 1 4 4v22l-2 21.1a1 1 0 0 1-1 .9zM2 46h42.091l1.914-20.095L46 4a2 2 0 0 0-2-2H8v18h13a1 1 0 0 1 1 1v20a1 1 0 0 1-1 1H2z" class="cls-1" data-name="Path 41"/>
        </g>
        <g id="Group_117" data-name="Group 117">
            <path id="Path_42" d="M38 47h-2V25a1 1 0 0 1 1-1h10v2h-9z" class="cls-1" data-name="Path 42"/>
        </g>
        <g id="Group_118" data-name="Group 118">
            <path id="Path_43" d="M47 12H35a1 1 0 0 1 0-2h12a1 1 0 0 1 0 2z" class="cls-1" data-name="Path 43"/>
        </g>
        <g id="Group_119" data-name="Group 119">
            <path id="Path_44" d="M47 16H35a1 1 0 0 1 0-2h12a1 1 0 0 1 0 2z" class="cls-1" data-name="Path 44"/>
        </g>
        <g id="Group_120" data-name="Group 120">
            <path id="Path_45" d="M47 20H35a1 1 0 0 1 0-2h12a1 1 0 0 1 0 2z" class="cls-1" data-name="Path 45"/>
        </g>
        <g id="Group_121" data-name="Group 121">
            <path id="Path_46" d="M17 33H9a1 1 0 0 1-1-1v-4a1 1 0 0 1 1-1h8a1 1 0 0 1 1 1v4a1 1 0 0 1-1 1zm-7-2h6v-2h-6z" class="cls-1" data-name="Path 46"/>
        </g>
        <g id="Group_122" data-name="Group 122">
            <path id="Path_47" d="M9 31H1a1 1 0 0 1 0-2h8a1 1 0 0 1 0 2z" class="cls-1" data-name="Path 47"/>
        </g>
        <g id="Group_123" data-name="Group 123">
            <path id="Rectangle_170" d="M0 0h2v7H0z" class="cls-1" data-name="Rectangle 170" transform="translate(14 21)"/>
        </g>
        <g id="Group_124" data-name="Group 124">
            <path id="Rectangle_171" d="M0 0h2v7H0z" class="cls-1" data-name="Rectangle 171" transform="translate(10 21)"/>
        </g>
        <g id="Group_125" data-name="Group 125">
            <path id="Path_48" d="M14 12a4 4 0 1 1 4-4 4 4 0 0 1-4 4zm0-6a2 2 0 1 0 2 2 2 2 0 0 0-2-2z" class="cls-1" data-name="Path 48"/>
        </g>
        <g id="Group_126" data-name="Group 126">
            <path id="Path_49" d="M13 35a1 1 0 0 1-1-1v-2a1 1 0 0 1 2 0v2a1 1 0 0 1-1 1z" class="cls-1" data-name="Path 49"/>
        </g>
    </g>
</svg>
