<svg xmlns="http://www.w3.org/2000/svg" width="72" height="69.76" viewBox="0 0 72 69.76">
    <defs>
        <style>
            .cls-1{fill:#5bad3b}
        </style>
    </defs>
    <g id="Group_185" data-name="Group 185" transform="translate(-149 -410)">
        <path id="Path_82" d="M-149.426 181.07a34.414 34.414 0 0 1-19.313-6.01 35.4 35.4 0 0 1-4.625-3.783 34.459 34.459 0 0 1-7.163-9.791 33.765 33.765 0 0 1-3.133-10.122 34.39 34.39 0 0 1 .447-12.651c.091-.4.148-.689-.476-.715a1.9 1.9 0 0 1-1.646-1.96 2.025 2.025 0 0 1 1.933-1.911.787.787 0 0 1 .239-.007c.984.2 1.382-.287 1.747-1.178a34.191 34.191 0 0 1 7.413-11.2 35.184 35.184 0 0 1 9.555-6.91 34.777 34.777 0 0 1 8.884-2.935 34.4 34.4 0 0 1 8.21-.543 34.106 34.106 0 0 1 8.956 1.678 34.87 34.87 0 0 1 11.993 6.8 35.475 35.475 0 0 1 8.744 11.493 20.346 20.346 0 0 1 .921 2.208.755.755 0 0 0 .882.59 2.332 2.332 0 0 1 1.979.645 1.918 1.918 0 0 1-.9 3.2c-.448.133-.483.27-.4.7a41.333 41.333 0 0 1 .783 6.33 34.3 34.3 0 0 1-3.133 15.721 33.981 33.981 0 0 1-5.718 8.72A34.41 34.41 0 0 1-141.1 180.1a33.636 33.636 0 0 1-5.6.861c-.838.06-1.672.061-2.726.109zm.265-7.249a27.028 27.028 0 0 0 6.514-.788 27.124 27.124 0 0 0 15.508-10.246 27.141 27.141 0 0 0 5.556-16.654c0-.756-.026-1.509-.1-2.265a30.473 30.473 0 0 0-.982-5.339.6.6 0 0 0-.727-.508c-.426.029-.443.324-.5.618-.034.175-.071.35-.106.525-.43 2.126-1.027 4.22-1.328 6.37a3.4 3.4 0 0 1-4.181 2.953c-.907-.22-1.837-.348-2.759-.509-2.571-.448-5.132-.964-7.716-1.315a5.569 5.569 0 0 1-4.691-4.058 32.2 32.2 0 0 1-1.2-4.069.552.552 0 0 0-.649-.514c-1.178.015-2.357.023-3.535 0-.43-.01-.591.172-.693.556-.305 1.155-.589 2.321-.977 3.449-.79 2.3-1.935 4.174-4.7 4.577-3.7.538-7.366 1.305-11.053 1.935a3.2 3.2 0 0 1-3.688-2.559c-.131-.788-.312-1.561-.481-2.339-.372-1.711-.761-3.419-1.133-5.131a.522.522 0 0 0-.614-.487c-.558.026-1.119.026-1.677 0a.576.576 0 0 0-.673.5 28.353 28.353 0 0 0-1.044 8.726 27.119 27.119 0 0 0 2.447 10.4 27.285 27.285 0 0 0 11.883 12.8 26.932 26.932 0 0 0 13.3 3.372zm23.607-41.784a25.447 25.447 0 0 0-4.074-5.293 27.447 27.447 0 0 0-9.127-6.118 26.809 26.809 0 0 0-9.164-2.017 28.644 28.644 0 0 0-4.772.2 27.077 27.077 0 0 0-9.935 3.253 27.691 27.691 0 0 0-7.66 6.326 28.486 28.486 0 0 0-3.471 5.219c-.076.147-.255.351-.043.467a.441.441 0 0 0 .592-.12 2.285 2.285 0 0 0 .122-.206 3.574 3.574 0 0 1 3.418-1.886q8 .01 15.994 0a3.524 3.524 0 0 1 3.363 1.872.616.616 0 0 0 .608.382c.938-.012 1.877-.006 2.815 0a.525.525 0 0 0 .55-.273 3.668 3.668 0 0 1 3.713-1.986c4.732.018 9.464 0 14.2.009a11.449 11.449 0 0 1 2.872.171z" class="cls-1" data-name="Path 82" transform="translate(334.336 298.69)"/>
        <path id="Path_83" d="M24.182 473.067a18.076 18.076 0 0 1-8.344-1.748 4.89 4.89 0 0 1-2.084-1.654 1.328 1.328 0 0 1 .477-2.082 7.376 7.376 0 0 1 3.036-.82c3.908-.483 7.832-.851 11.7-1.6 2.814-.541 5.622-1.117 8.43-1.691 1.344-.275 2.681-.583 4.022-.87.15-.032.342-.122.454.014s-.03.3-.111.426c-2.5 3.782-5.578 6.919-9.866 8.662a19.4 19.4 0 0 1-7.714 1.363z" class="cls-1" data-name="Path 83" transform="translate(159.383 -10.451)"/>
    </g>
</svg>
