<svg xmlns="http://www.w3.org/2000/svg" width="46.994" height="55.846" viewBox="0 0 46.994 55.846">
    <defs>
        <style>
            .cls-1{fill:#5bad3b}
        </style>
    </defs>
    <g id="Group_129" data-name="Group 129" transform="translate(-895.737 108.596)">
        <path id="Path_57" d="M1156.377 46.517c0 1.484.01 2.968 0 4.451a2.832 2.832 0 0 1-2.931 2.9c-1.788.009-3.58-.072-5.363.024a3.06 3.06 0 0 1-3.291-3.36c.037-2.758.013-5.516.015-8.275 0-.171-.01-.342-.008-.514 0-.309-.141-.446-.454-.441-.609.01-1.217 0-1.826 0a3.432 3.432 0 0 1-3.357-3.874c.672-3.931 1.265-7.875 1.9-11.812.58-3.619 1.147-7.24 1.762-10.853a3.271 3.271 0 0 1 3.438-2.941q4.365-.061 8.731 0a3.336 3.336 0 0 1 3.454 3.121c.81 5.063 1.64 10.122 2.458 15.184q.586 3.627 1.157 7.257a3.423 3.423 0 0 1-3.323 3.918c-.59.009-1.18.019-1.769-.008-.445-.021-.6.144-.6.593.02 1.548.008 3.09.007 4.63zm-5.677-7.307h8.046a1.348 1.348 0 0 0 1.474-1.724q-.653-4.193-1.323-8.384-1.111-6.918-2.234-13.834c-.17-1.06-.6-1.463-1.663-1.464h-8.559c-1.113 0-1.54.389-1.71 1.479q-.752 4.812-1.525 9.621c-.671 4.181-1.353 8.36-2.021 12.541-.182 1.136.333 1.757 1.47 1.762 2.681.01 5.362.001 8.045.003zm3.7 7.218c0-1.463-.018-2.926.01-4.388.01-.525-.122-.743-.694-.735a303.17 303.17 0 0 1-6.326.007c-.43 0-.6.1-.6.574.018 2.944 0 5.889.012 8.834 0 .885.357 1.237 1.254 1.243q2.564.018 5.129 0c.862 0 1.213-.361 1.215-1.208 0-1.44-.006-2.884-.005-4.328z" class="cls-1" data-name="Path 57" transform="translate(-219.367 -106.653)"/>
        <path id="Path_58" d="M897.267 43.345c0-2.7-.008-5.4.008-8.1a.681.681 0 0 0-.534-.781 4.436 4.436 0 0 1-3-4.231q-.017-6.475 0-12.95a4.5 4.5 0 0 1 4.54-4.531q4.707-.024 9.413 0a4.491 4.491 0 0 1 4.576 4.609q.021 6.361.007 12.722a4.431 4.431 0 0 1-3.1 4.433c-.462.161-.421.457-.421.8 0 5.306-.044 10.612.025 15.917a3.611 3.611 0 0 1-3.526 3.494c-1.554-.091-3.118-.011-4.677-.022a3.374 3.374 0 0 1-3.315-3.311c-.001-2.686.004-5.368.004-8.049zm1.908-1v8.5a1.608 1.608 0 0 0 1.6 1.828q2.225.023 4.451 0a1.531 1.531 0 0 0 1.557-1.248 3.341 3.341 0 0 0 .076-.906V33.971c0-.907.219-1.149 1.107-1.244a2.425 2.425 0 0 0 2.324-2.591V17.468a2.5 2.5 0 0 0-2.767-2.739c-2.891 0-5.782-.006-8.673.008a5.431 5.431 0 0 0-1.073-.057 2.423 2.423 0 0 0-2.031 2.522q-.017 6.362-.006 12.725a2.476 2.476 0 0 0 2.322 2.732c.968.156 1.112.318 1.113 1.293q.003 4.203 0 8.398z" class="cls-1" data-name="Path 58" transform="translate(2 -107.481)"/>
        <path id="Path_59" d="M924.621-102.884a5.717 5.717 0 0 1 5.436-5.708 5.8 5.8 0 0 1 6.011 5.648 5.787 5.787 0 0 1-5.589 5.887 5.756 5.756 0 0 1-5.858-5.827zm5.809 3.794a3.917 3.917 0 0 0 3.774-3.769 3.907 3.907 0 0 0-3.752-3.793 3.856 3.856 0 0 0-3.812 3.832 3.857 3.857 0 0 0 3.789 3.73z" class="cls-1" data-name="Path 59" transform="translate(-25.354)"/>
        <path id="Path_60" d="M1200.468-102.139a5.663 5.663 0 0 1-5.756 5.665 5.792 5.792 0 0 1-5.7-5.73 5.825 5.825 0 0 1 5.784-5.73 5.689 5.689 0 0 1 5.672 5.795zm-9.477-.157a3.877 3.877 0 0 0 3.775 3.88 3.736 3.736 0 0 0 3.772-3.8 3.78 3.78 0 0 0-3.733-3.841 3.788 3.788 0 0 0-3.814 3.757z" class="cls-1" data-name="Path 60" transform="translate(-263.569 -.585)"/>
    </g>
</svg>
